<?xml version="1.0" encoding="UTF-8"?> <svg xmlns="http://www.w3.org/2000/svg" id="a" data-name="Layer 1" viewBox="0 0 203.4 48.39"><defs><style> .b { fill: #003566; } </style></defs><path class="b" d="M85.71,.8v.04h-11.62l-8.83,8.83,.03-.29H33.06l-.14,1.83-.46,5.02c-.13-.13-.26-.25-.39-.38-.58-.52-1.25-.96-2-1.34-.74-.38-1.6-.65-2.56-.86L40.34,.84H22.24L9.05,14.02l-.33,3.35-.46,5.39H1.16l-.33,4.01-.44,4.81-.39,4.01H39.87c-.16,.26-.36,.49-.62,.7-.58,.46-1.29,.73-2.16,.77l-.36,4.01h11.41c1.52,.01,2.74-.45,3.7-1.39,.94-.96,1.51-2.31,1.67-4.08h51.85l.36-4.01,2.6-28.6,.19-2.18h-22.8ZM49.56,35.57c-.03,.41-.12,.71-.23,.91-.13,.2-.28,.39-.48,.57h-5.44c.23-.28,.41-.54,.51-.76,.1-.22,.17-.46,.2-.73l2-22.19h5.39l-1.16,13.4h3.98l1.22-13.4h5.39l-.29,3.34-.07,.67-.22,2.44-.61,6.95h3.95s14.24-.01,14.24-.01c.09-.96,.09-1.74,0-2.34-.07-.61-.26-1.07-.55-1.41-.28-.33-.67-.57-1.18-.68-.51-.13-1.13-.19-1.87-.19h-10.21l.58-6.39,11.06-10.96h6.78l-8.57,8.58-4.01,4.01,5.66-.03c1,0,1.89,.1,2.69,.29,.8,.2,1.5,.48,2.11,.83,.6,.36,1.1,.78,1.54,1.28,.42,.51,.76,1.05,1.02,1.66,.16,.38,.28,.73,.36,1.07,.07,.36,.12,.74,.13,1.15,.01,.41,0,.86-.03,1.36-.03,.49-.09,1.09-.15,1.77h4.05l2-21.97h5.39l-1.03,11.63-1.38,15.14H49.92l-.36,3.99ZM4.81,26.77H26.06c.09-.96,.1-1.74,.01-2.34-.07-.61-.26-1.07-.55-1.41-.28-.33-.68-.57-1.19-.68-.51-.13-1.15-.19-1.89-.19H12.24l.6-6.39L23.91,4.8h6.78l-8.57,8.58-4.01,4.01,5.66-.03c1,0,1.89,.1,2.69,.29,.8,.2,1.5,.48,2.11,.83,.6,.36,1.1,.78,1.52,1.28,.41,.51,.74,1.05,1,1.66,.17,.38,.29,.73,.38,1.07,.07,.36,.13,.74,.14,1.15,.01,.41,0,.86-.03,1.36-.03,.49-.09,1.09-.14,1.77h.04s4.01,.01,4.01,.01l.16-1.81,.03-.35,1-11.24h5.42v.29s-1.66,17.9-1.66,17.9H4.37l.44-4.81Zm79.51-10.53c-.13-.13-.26-.26-.41-.39-.58-.52-1.25-.96-2-1.34-.74-.38-1.6-.65-2.56-.86l5.74-5.71-.77,8.29Zm17.42,15.33h-5.42l2.44-26.77h5.4l-2.42,26.77Z"></path><path class="b" d="M184.91,10.83l.76-8h-10.6l-.73,8h-8.8v.04h-33.93c-3.15,0-6.1,.44-8.84,1.29-2.73,.87-5.14,2.16-7.22,3.91-1.12,.94-2.08,1.99-2.9,3.12-.81,1.13-1.5,2.34-2.03,3.62-.55,1.28-.96,2.6-1.22,3.98s-.41,2.79-.41,4.23c0,2.29,.38,4.46,1.13,6.49,.76,2.02,1.89,3.83,3.38,5.43,.93,.97,1.93,1.8,3.02,2.48,1.09,.7,2.24,1.26,3.44,1.7,1.22,.44,2.45,.76,3.75,.97,1.29,.2,2.58,.3,3.89,.3,3.19,0,6.13-.45,8.77-1.36,2.66-.9,4.99-2.29,7.01-4.2,1.06-1,2-2.12,2.85-3.37,.84-1.25,1.55-2.64,2.15-4.21h46.33l.33-3.73,1.87-20.69h-12.01Zm-41.13,25.58c-.81,1.41-1.79,2.64-2.92,3.7-1.66,1.55-3.6,2.7-5.82,3.43-2.24,.74-4.7,1.1-7.43,1.1-1.05,0-2.09-.07-3.12-.22-1.05-.16-2.05-.41-3.03-.74-.97-.35-1.92-.78-2.8-1.34-.9-.54-1.71-1.21-2.45-1.99-1.16-1.23-2.03-2.64-2.61-4.24-.6-1.6-.89-3.31-.89-5.11,0-1.16,.1-2.31,.32-3.43,.2-1.12,.52-2.19,.96-3.22,.44-1.03,.99-2,1.64-2.93,.65-.91,1.44-1.74,2.34-2.51,1.73-1.45,3.76-2.53,6.08-3.24,2.34-.71,4.86-1.07,7.58-1.07h7.29l-.41,4.44h-8.28c-1.7,0-3.28,.26-4.78,.8-1.48,.54-2.79,1.31-3.92,2.31-1.23,1.09-2.18,2.37-2.82,3.82-.64,1.44-.96,2.99-.96,4.65,0,1.44,.23,2.73,.73,3.89,.49,1.15,1.21,2.15,2.11,2.98,.52,.48,1.09,.9,1.71,1.23,.62,.35,1.26,.62,1.93,.84,.67,.2,1.35,.36,2.05,.46,.7,.09,1.39,.15,2.09,.15,1.7,0,3.33-.28,4.89-.83,1.57-.55,2.99-1.45,4.24-2.7,1.05-1.05,1.93-2.34,2.63-3.91,.71-1.55,1.16-3.44,1.38-5.66l1.13-12.47h5.02l-1.1,12.49h3.7l1.16-12.49h5.02l-1.12,12.49h3.69l1.16-12.49h5.02l-1.15,12.49h3.72v-.04h.06l1.12-12.49h5.05l-1.55,16.96h-26.72c-.49,1.84-1.13,3.48-1.95,4.89Zm-5.62-13.63l-.39,4.3c-.16,1.64-.49,3.02-.99,4.14-.51,1.1-1.13,2.03-1.89,2.79-.87,.87-1.87,1.48-2.99,1.87-1.13,.38-2.31,.57-3.54,.57-.94,0-1.87-.12-2.79-.36-.93-.23-1.74-.67-2.47-1.32-.52-.49-.93-1.07-1.22-1.76-.29-.7-.42-1.48-.41-2.38,0-1.16,.19-2.21,.58-3.12,.41-.93,1.03-1.77,1.92-2.54,.78-.7,1.71-1.23,2.79-1.61,1.06-.38,2.22-.57,3.47-.57h7.93Zm53.17,8.74h-15.14l2.27-24.96h5.02l-.38,4.27-.03,.28-1.42,15.93h0s5.07,.01,5.07,.01l1.1-12.49h5.05l-1.54,16.96Z"></path><path class="b" d="M194.11,8.49L194.81,0h8.58s-.7,8.49-.7,8.49h-8.58Zm2.88-6.12l-.31,3.75h3.83s.31-3.75,.31-3.75h-3.83Z"></path><path class="b" d="M186.14,8.49L186.85,0h8.58s-.7,8.49-.7,8.49h-8.58Zm2.88-6.12l-.31,3.75h3.83s.31-3.75,.31-3.75h-3.83Z"></path><path class="b" d="M54.21,8.37L54.89,.13h8.33s-.68,8.24-.68,8.24h-8.33Zm2.86-5.87l-.29,3.5h3.57s.29-3.5,.29-3.5h-3.57Z"></path><path class="b" d="M46.57,8.37L47.25,.13h8.33s-.68,8.24-.68,8.24h-8.33Zm2.86-5.87l-.29,3.5h3.57s.29-3.5,.29-3.5h-3.57Z"></path><path class="b" d="M26.54,45.57l.68-8.24h8.33s-.68,8.24-.68,8.24h-8.33Zm2.86-5.87l-.29,3.5h3.57s.29-3.5,.29-3.5h-3.57Z"></path><path class="b" d="M18.58,45.57l.68-8.24h8.33s-.68,8.24-.68,8.24h-8.33Zm2.86-5.87l-.29,3.5h3.57s.29-3.5,.29-3.5h-3.57Z"></path><path class="b" d="M162.32,45.7l.7-8.49h8.58s-.7,8.49-.7,8.49h-8.58Zm2.88-6.12l-.31,3.75h3.83s.31-3.75,.31-3.75h-3.83Z"></path><path class="b" d="M160.72,8.49L161.43,0h8.58s-.7,8.49-.7,8.49h-8.58Zm2.88-6.12l-.31,3.75h3.83s.31-3.75,.31-3.75h-3.83Z"></path><path class="b" d="M152.63,8.49L153.33,0h8.58s-.7,8.49-.7,8.49h-8.58Zm2.88-6.12l-.31,3.75h3.83s.31-3.75,.31-3.75h-3.83Z"></path><path class="b" d="M144.53,8.49L145.24,0h8.58s-.7,8.49-.7,8.49h-8.58Zm2.88-6.12l-.31,3.75h3.83s.31-3.75,.31-3.75h-3.83Z"></path></svg> 